<svg xmlns="http://www.w3.org/2000/svg" version="1.1" xmlns:xlink="http://www.w3.org/1999/xlink" xmlns:svgjs="http://svgjs.dev/svgjs" width="128" height="128" viewBox="0 0 128 128"><g transform="matrix(0.8046875,0,0,0.8046875,12.760752631578946,19.004134726699604)"><svg viewBox="0 0 95 92" data-background-color="#ffffff" preserveAspectRatio="xMidYMid meet" height="123" width="128" xmlns="http://www.w3.org/2000/svg" xmlns:xlink="http://www.w3.org/1999/xlink"><g id="tight-bounds" transform="matrix(1,0,0,1,-0.24049999999999727,0.05103653510956008)"><svg viewBox="0 0 95.481 91.89792692978088" height="91.89792692978088" width="95.481"><g><svg viewBox="0 0 95.481 91.89792692978088" height="91.89792692978088" width="95.481"><g><svg viewBox="0 0 95.481 91.89792692978088" height="91.89792692978088" width="95.481"><g id="textblocktransform"><svg viewBox="0 0 95.481 91.89792692978088" height="91.89792692978088" width="95.481" id="textblock"><g><svg viewBox="0 0 95.481 91.89792692978088" height="91.89792692978088" width="95.481"><g><svg viewBox="0 0 95.481 91.89792692978088" height="91.89792692978088" width="95.481"><g><svg xmlns="http://www.w3.org/2000/svg" viewBox="6.539999999999999 6.888876638246761 18.89 18.18112336175324" x="0" y="0" height="91.89792692978088" width="95.481" class="icon-icon-0" data-fill-palette-color="accent" id="icon-0"><g fill="#ea9937" data-fill-palette-color="accent"><path d="M21.26 12.21L17.11 8.83a1.31 1.31 0 0 0 0.18-0.61 1.29 1.29 0 1 0-2.42 0.58l-4.33 3.41h-4V25.07H25.43V12.21ZM16 7.93a0.29 0.29 0 1 1-0.29 0.29A0.29 0.29 0 0 1 16 7.93Zm-0.33 1.51a1.21 1.21 0 0 0 0.33 0.07 1.5 1.5 0 0 0 0.29-0.06l3.39 2.76H12.15Zm8.76 14.63H7.57V13.21H24.43ZM23.56 15H8.44V14H23.56Zm-15 4h3v-3h-3Zm1-2h1v1h-1Zm3 2h3v-3h-3Zm1-2h1v1h-1Zm-5 6h3v-3h-3Zm1-2h1v1h-1Zm3 2h3v-3h-3Zm1-2h1v1h-1Zm3-2h3v-3h-3Zm1-2h1v1h-1Zm3 2h3v-3h-3Zm1-2h1v1h-1Zm-5 6h3v-3h-3Zm1-2h1v1h-1Zm3 2h3v-3h-3Zm1-2h1v1h-1Z" fill="#ea9937" data-fill-palette-color="accent"></path></g></svg></g></svg></g></svg></g></svg></g></svg></g></svg></g><defs></defs></svg><rect width="95.481" height="91.89792692978088" fill="none" stroke="none" visibility="hidden"></rect></g></svg></g></svg>