<svg xmlns="http://www.w3.org/2000/svg" version="1.1" xmlns:xlink="http://www.w3.org/1999/xlink" xmlns:svgjs="http://svgjs.dev/svgjs" width="1000" height="297" viewBox="0 0 1000 297"><g transform="matrix(1,0,0,1,-0.6060536415594129,-21.38868999165274)"><svg viewBox="0 0 396 118" data-background-color="#ffffff" preserveAspectRatio="xMidYMid meet" height="297" width="1000" xmlns="http://www.w3.org/2000/svg" xmlns:xlink="http://www.w3.org/1999/xlink"><g id="tight-bounds" transform="matrix(1,0,0,1,0.24000275794242043,8.497863363686946)"><svg viewBox="0 0 395.52 109.53759097555775" height="109.53759097555775" width="395.52"><g><svg viewBox="0 0 568.4605731376662 157.43275117841023" height="109.53759097555775" width="395.52"><g transform="matrix(1,0,0,1,170.9629731376662,48.649005234275734)"><svg viewBox="0 0 397.4975999999999 60.13474070985876" height="60.13474070985876" width="397.4975999999999"><g id="textblocktransform"><svg viewBox="0 0 397.4975999999999 60.13474070985876" height="60.13474070985876" width="397.4975999999999" id="textblock"><g><rect width="397.4975999999999" height="2.8235308775846795" x="0" y="34.63573605522928" fill="#ea3c12" opacity="1" stroke-width="0" stroke="transparent" fill-opacity="1" class="rect-o-0" data-fill-palette-color="primary" rx="1%" id="o-0" data-palette-color="#ea3c12"></rect></g><g transform="matrix(1,0,0,1,0.9887999999999693,0)"><svg viewBox="0 0 395.52 31.309587115666176" height="31.309587115666176" width="395.52"><g transform="matrix(1,0,0,1,0,0)"><svg width="395.52" viewBox="1.5099999904632568 -37.9900016784668 500.2200012207031 39.60000228881836" height="31.309587115666176" data-palette-color="#ea3c12"><path d="M40.14-24.17L40.14-24.17Q40.14-23.34 40.04-22.61 39.94-21.88 39.7-21.09L39.7-21.09Q39.4-20.26 38.57-19.51 37.74-18.75 36.72-18.09 35.69-17.43 34.62-16.97 33.54-16.5 32.81-16.26L32.81-16.26Q33.06-16.21 33.79-16.09 34.52-15.97 35.33-15.77 36.13-15.58 36.82-15.31 37.5-15.04 37.7-14.75L37.7-14.75Q38.04-14.16 38.26-13.31 38.48-12.45 38.57-11.5 38.67-10.55 38.72-9.64 38.77-8.74 38.77-8.06L38.77-8.06Q38.77-7.81 38.77-7.54 38.77-7.28 38.72-7.03L38.72-7.03Q38.62-6.54 38.04-5.74 37.45-4.93 36.67-4.1 35.89-3.27 35.13-2.56 34.38-1.86 33.98-1.56L33.98-1.56Q33.45-1.17 32.93-0.88 32.42-0.59 31.84-0.34L31.84-0.34Q31.4-0.15 29.96-0.05 28.52 0.05 26.9 0.12 25.29 0.2 23.88 0.22 22.46 0.24 21.97 0.24L21.97 0.24Q18.07 0.24 14.26 0.12 10.45 0 6.54-0.2L6.54-0.2Q6.64-3.66 6.69-7.1 6.74-10.55 6.74-14.06L6.74-14.06Q6.74-18.02 6.49-21.92 6.25-25.83 5.96-29.74L5.96-29.74 2.2-30.08Q1.95-32.03 1.83-33.91 1.71-35.79 1.51-37.7L1.51-37.7Q5.52-37.6 9.52-37.5 13.53-37.4 17.53-37.3L17.53-37.3Q19.24-37.26 21.88-36.99 24.51-36.72 27.27-36.28 30.03-35.84 32.5-35.21 34.96-34.57 36.38-33.79L36.38-33.79Q37.45-33.2 38.16-32.03 38.87-30.86 39.31-29.47 39.75-28.08 39.94-26.66 40.14-25.24 40.14-24.17ZM27.15-24.37L27.15-24.37Q27.15-24.85 27.1-25.61 27.05-26.37 26.9-27.15 26.76-27.93 26.51-28.61 26.27-29.3 25.93-29.74L25.93-29.74Q25.83-29.88 25.39-29.98 24.95-30.08 24.44-30.13 23.93-30.18 23.44-30.18 22.95-30.18 22.8-30.18L22.8-30.18Q20.36-30.18 17.97-29.91 15.58-29.64 13.18-29.25L13.18-29.25Q13.48-26.86 13.72-24.46 13.96-22.07 14.31-19.68L14.31-19.68Q14.89-19.68 16.6-19.78 18.31-19.87 20.24-20.02 22.17-20.17 23.83-20.39 25.49-20.61 25.98-20.9L25.98-20.9Q26.81-21.44 26.98-22.46 27.15-23.49 27.15-24.37ZM26.76-10.6L26.76-10.6Q26.76-11.33 26.56-12.08 26.37-12.84 25.78-13.33L25.78-13.33Q25.63-13.48 25.1-13.57 24.56-13.67 23.97-13.7 23.39-13.72 22.85-13.75 22.31-13.77 22.12-13.77L22.12-13.77Q20.02-13.77 17.97-13.55 15.92-13.33 13.87-13.09L13.87-13.09 14.65-6.88Q14.89-6.88 15.8-6.93 16.7-6.98 17.9-7.06 19.09-7.13 20.43-7.23 21.78-7.32 22.95-7.47 24.12-7.62 24.95-7.79 25.78-7.96 25.98-8.2L25.98-8.2Q26.42-8.74 26.59-9.33 26.76-9.91 26.76-10.6ZM81.59-16.11L81.59-16.11Q81.59-13.33 81.47-10.6 81.35-7.86 80.95-5.08L80.95-5.08Q80.17-4.49 79.39-3.98 78.61-3.47 77.78-2.88L77.78-2.88Q77.1-2.44 76.29-1.88 75.49-1.32 74.61-0.78 73.73-0.24 72.82 0.17 71.92 0.59 71.14 0.73L71.14 0.73Q70.41 0.93 69.19 0.9 67.97 0.88 67.14 0.88L67.14 0.88Q65.09 0.98 63.03 1.03 60.98 1.07 58.84 1.07L58.84 1.07Q57.86 1.07 56.59 1.1 55.32 1.12 54.29 0.88L54.29 0.88Q54 0.83 53.32 0.42 52.63 0 51.78-0.61 50.93-1.22 50-1.93 49.07-2.64 48.22-3.3 47.36-3.96 46.75-4.47 46.14-4.98 45.9-5.18L45.9-5.18Q45.65-7.76 45.53-10.33 45.41-12.89 45.41-15.48L45.41-15.48Q45.41-20.51 45.77-25.44 46.14-30.37 46.58-35.35L46.58-35.35 56.64-35.6Q56.15-32.47 55.95-28.98 55.76-25.49 55.76-22.27L55.76-22.27Q55.76-21.73 55.81-20.39 55.86-19.04 56-17.53 56.15-16.02 56.37-14.75 56.59-13.48 56.93-13.09L56.93-13.09Q57.08-12.94 57.69-12.82 58.3-12.7 59.15-12.6 60.01-12.5 60.98-12.45 61.96-12.4 62.84-12.38 63.72-12.35 64.4-12.33 65.09-12.3 65.38-12.3L65.38-12.3Q65.62-12.3 66.21-12.3 66.79-12.3 67.4-12.33 68.02-12.35 68.55-12.4 69.09-12.45 69.28-12.6L69.28-12.6Q69.87-12.99 70.16-14.5 70.46-16.02 70.6-17.82 70.75-19.63 70.75-21.29 70.75-22.95 70.75-23.68L70.75-23.68Q70.75-24.8 70.77-25.93 70.8-27.05 70.8-28.17L70.8-28.17Q70.8-30.47 70.75-32.69 70.7-34.91 70.6-37.21L70.6-37.21Q71.63-37.11 72.63-37.08 73.63-37.06 74.66-37.06L74.66-37.06Q75.88-37.06 77.07-37.11 78.27-37.16 79.44-37.4L79.44-37.4Q80.47-32.18 81.03-26.83 81.59-21.48 81.59-16.11ZM111.37-10.35L112.1-1.22Q106.29-0.78 100.56-0.39 94.82 0 89.01 0.34L89.01 0.34Q88.76-8.98 88.62-18.19 88.47-27.39 88.08-36.77L88.08-36.77Q91.35-36.82 94.53-36.96 97.7-37.11 100.92-37.35L100.92-37.35Q100.39-33.74 99.92-30.1 99.46-26.46 99.21-22.8L99.21-22.8Q99.02-19.73 98.9-16.67 98.77-13.62 98.68-10.55L98.68-10.55Q101.9-10.45 105.05-10.45 108.2-10.45 111.37-10.35L111.37-10.35ZM139.35-10.35L140.08-1.22Q134.27-0.78 128.53-0.39 122.8 0 116.98 0.34L116.98 0.34Q116.74-8.98 116.59-18.19 116.45-27.39 116.06-36.77L116.06-36.77Q119.33-36.82 122.5-36.96 125.68-37.11 128.9-37.35L128.9-37.35Q128.36-33.74 127.9-30.1 127.43-26.46 127.19-22.8L127.19-22.8Q126.99-19.73 126.87-16.67 126.75-13.62 126.65-10.55L126.65-10.55Q129.88-10.45 133.02-10.45 136.17-10.45 139.35-10.35L139.35-10.35ZM171.57-36.23L172.11-29.74Q167.32-29.49 162.61-29.22 157.9-28.96 153.12-28.56L153.12-28.56 153.02-24.71 165.62-25.44Q165.86-23.78 165.98-22.17 166.1-20.56 166.1-18.9L166.1-18.9Q166.1-18.21 166.08-17.48 166.05-16.75 166.05-16.06L166.05-16.06 154.34-13.96 155.07-7.91Q158.78-8.15 162.47-8.62 166.15-9.08 169.91-9.42L169.91-9.42Q170.25-6.98 170.6-4.52 170.94-2.05 171.57 0.29L171.57 0.29Q164.64 0.24 157.8 0.32 150.97 0.39 144.03 0.39L144.03 0.39Q144.18-5.32 144.37-10.99 144.57-16.65 144.57-22.41L144.57-22.41 144.57-23.34Q144.57-26.66 144.47-29.96 144.37-33.25 144.28-36.62L144.28-36.62Q148.13-36.57 151.97-36.6 155.8-36.62 159.71-36.62L159.71-36.62Q162.69-36.62 165.64-36.5 168.59-36.38 171.57-36.23L171.57-36.23ZM204.53-28.42L204.53-28.42 204.53-25 195.1-24.51Q194.91-21.68 194.81-18.9 194.71-16.11 194.71-13.33L194.71-13.33Q194.71-9.91 194.54-6.52 194.37-3.13 194.13 0.24L194.13 0.24Q192.37 0.34 190.61 0.42 188.85 0.49 187.1 0.49L187.1 0.49Q186.46 0.49 185.85 0.46 185.24 0.44 184.66 0.44L184.66 0.44Q184.75-2.54 184.83-5.49 184.9-8.45 184.9-11.38L184.9-11.38Q184.9-14.31 184.75-17.26 184.61-20.21 184.41-23.19L184.41-23.19Q183-23.14 181.55-23.1 180.11-23.05 178.65-23.05L178.65-23.05Q177.82-23.05 177.01-23.05 176.21-23.05 175.38-23.1L175.38-23.1Q175.23-26.71 175.18-30.27 175.13-33.84 175.09-37.4L175.09-37.4Q182.41-37.26 189.64-36.99 196.86-36.72 204.14-36.52L204.14-36.52Q204.33-34.42 204.43-32.45 204.53-30.47 204.53-28.42ZM228.99-35.84L228.99-35.84Q228.74-32.86 228.79-29.91 228.84-26.95 228.74-24.02L228.74-24.02 223.32-24.22Q223.28-22.51 223.25-20.85 223.23-19.19 223.23-17.48L223.23-17.48Q223.23-15.43 223.25-13.45 223.28-11.47 223.32-9.42L223.32-9.42 228.31-9.33Q228.21-7.91 228.21-6.45 228.21-4.98 228.21-3.52L228.21-3.52Q228.21-2.29 228.28-1.07 228.35 0.15 228.6 1.32L228.6 1.32 211.07 1.61Q211.07-0.78 211.02-3.1 210.97-5.42 210.82-7.81L210.82-7.81 214-7.86Q213.75-12.45 213.44-16.94 213.12-21.44 212.78-25.98L212.78-25.98 208.14-26.56Q208.04-28.61 207.97-30.64 207.9-32.67 207.8-34.72L207.8-34.72Q213.12-34.91 218.37-35.18 223.62-35.45 228.99-35.84ZM273.52-15.72L273.52-15.72Q273.52-11.43 273.49-7.25 273.47-3.08 273.42 1.22L273.42 1.22Q270.39 1.07 267.41 1.07L267.41 1.07Q265.95 1.07 264.46 1.22 262.97 1.37 261.51 1.61L261.51 1.61Q259.65-2.44 257.8-6.42 255.94-10.4 254.08-14.45L254.08-14.45Q252.72-17.43 251.5-20.41 250.28-23.39 249.05-26.42L249.05-26.42Q248.62-19.82 248.15-13.31 247.69-6.79 247.39-0.2L247.39-0.2 236.85-0.49Q236.6-9.86 236.41-19.14 236.21-28.42 235.72-37.79L235.72-37.79 254.82-37.89Q255.79-35.45 256.65-32.98 257.5-30.52 258.28-27.98L258.28-27.98Q259.41-24.12 260.82-20.34 262.24-16.55 263.65-12.74L263.65-12.74Q263.61-18.85 263.43-24.9 263.26-30.96 263.17-37.11L263.17-37.11 273.03-35.94Q273.22-30.86 273.37-25.83 273.52-20.8 273.52-15.72ZM337.77-24.17L337.77-24.17Q337.77-23.34 337.67-22.61 337.58-21.88 337.33-21.09L337.33-21.09Q337.04-20.26 336.21-19.51 335.38-18.75 334.35-18.09 333.33-17.43 332.25-16.97 331.18-16.5 330.45-16.26L330.45-16.26Q330.69-16.21 331.42-16.09 332.16-15.97 332.96-15.77 333.77-15.58 334.45-15.31 335.13-15.04 335.33-14.75L335.33-14.75Q335.67-14.16 335.89-13.31 336.11-12.45 336.21-11.5 336.31-10.55 336.35-9.64 336.4-8.74 336.4-8.06L336.4-8.06Q336.4-7.81 336.4-7.54 336.4-7.28 336.35-7.03L336.35-7.03Q336.26-6.54 335.67-5.74 335.08-4.93 334.3-4.1 333.52-3.27 332.77-2.56 332.01-1.86 331.62-1.56L331.62-1.56Q331.08-1.17 330.57-0.88 330.06-0.59 329.47-0.34L329.47-0.34Q329.03-0.15 327.59-0.05 326.15 0.05 324.54 0.12 322.93 0.2 321.51 0.22 320.09 0.24 319.61 0.24L319.61 0.24Q315.7 0.24 311.89 0.12 308.08 0 304.18-0.2L304.18-0.2Q304.27-3.66 304.32-7.1 304.37-10.55 304.37-14.06L304.37-14.06Q304.37-18.02 304.13-21.92 303.88-25.83 303.59-29.74L303.59-29.74 299.83-30.08Q299.59-32.03 299.46-33.91 299.34-35.79 299.15-37.7L299.15-37.7Q303.15-37.6 307.16-37.5 311.16-37.4 315.16-37.3L315.16-37.3Q316.87-37.26 319.51-36.99 322.15-36.72 324.9-36.28 327.66-35.84 330.13-35.21 332.59-34.57 334.01-33.79L334.01-33.79Q335.08-33.2 335.79-32.03 336.5-30.86 336.94-29.47 337.38-28.08 337.58-26.66 337.77-25.24 337.77-24.17ZM324.78-24.37L324.78-24.37Q324.78-24.85 324.73-25.61 324.68-26.37 324.54-27.15 324.39-27.93 324.15-28.61 323.9-29.3 323.56-29.74L323.56-29.74Q323.46-29.88 323.02-29.98 322.58-30.08 322.07-30.13 321.56-30.18 321.07-30.18 320.58-30.18 320.44-30.18L320.44-30.18Q318-30.18 315.6-29.91 313.21-29.64 310.82-29.25L310.82-29.25Q311.11-26.86 311.35-24.46 311.6-22.07 311.94-19.68L311.94-19.68Q312.53-19.68 314.24-19.78 315.94-19.87 317.87-20.02 319.8-20.17 321.46-20.39 323.12-20.61 323.61-20.9L323.61-20.9Q324.44-21.44 324.61-22.46 324.78-23.49 324.78-24.37ZM324.39-10.6L324.39-10.6Q324.39-11.33 324.2-12.08 324-12.84 323.42-13.33L323.42-13.33Q323.27-13.48 322.73-13.57 322.19-13.67 321.61-13.7 321.02-13.72 320.49-13.75 319.95-13.77 319.75-13.77L319.75-13.77Q317.65-13.77 315.6-13.55 313.55-13.33 311.5-13.09L311.5-13.09 312.28-6.88Q312.53-6.88 313.43-6.93 314.33-6.98 315.53-7.06 316.73-7.13 318.07-7.23 319.41-7.32 320.58-7.47 321.75-7.62 322.58-7.79 323.42-7.96 323.61-8.2L323.61-8.2Q324.05-8.74 324.22-9.33 324.39-9.91 324.39-10.6ZM383.47-20.85L383.47-20.85Q383.47-20.21 383.47-19.6 383.47-18.99 383.42-18.41L383.42-18.41Q383.37-17.92 383.3-16.7 383.23-15.48 383.1-13.89 382.98-12.3 382.81-10.55 382.64-8.79 382.42-7.3 382.2-5.81 381.96-4.74 381.71-3.66 381.47-3.42L381.47-3.42Q380-1.95 377.98-1.25 375.95-0.54 373.75-0.29 371.56-0.05 369.36-0.1 367.16-0.15 365.26-0.15L365.26-0.15Q364.62-0.15 363.11-0.17 361.6-0.2 359.67-0.24 357.74-0.29 355.64-0.42 353.54-0.54 351.71-0.76 349.88-0.98 348.53-1.29 347.19-1.61 346.85-2.1L346.85-2.1Q346.46-2.64 346.17-3.27 345.87-3.91 345.63-4.49L345.63-4.49Q344.99-6.1 344.46-7.93 343.92-9.77 343.55-11.69 343.19-13.62 342.97-15.53 342.75-17.43 342.75-19.14L342.75-19.14Q342.75-20.07 342.89-21.56 343.04-23.05 343.29-24.78 343.53-26.51 343.87-28.32 344.21-30.13 344.63-31.69 345.04-33.25 345.53-34.4 346.02-35.55 346.61-35.94L346.61-35.94Q347.09-36.28 348.41-36.57 349.73-36.87 351.49-37.08 353.25-37.3 355.25-37.48 357.25-37.65 359.06-37.77 360.86-37.89 362.33-37.94 363.79-37.99 364.48-37.99L364.48-37.99Q365.4-37.99 366.99-37.89 368.58-37.79 370.43-37.57 372.29-37.35 374.19-37.04 376.1-36.72 377.73-36.28 379.37-35.84 380.54-35.3 381.71-34.77 382.01-34.13L382.01-34.13Q382.25-33.59 382.47-32.59 382.69-31.59 382.84-30.32 382.98-29.05 383.1-27.64 383.23-26.22 383.3-24.93 383.37-23.63 383.42-22.56 383.47-21.48 383.47-20.85ZM374.73-19.24L374.73-19.24Q374.73-20.21 374.63-21.31 374.54-22.41 374-23.24L374-23.24Q373.61-23.83 372.12-24.17 370.63-24.51 368.85-24.66 367.06-24.8 365.4-24.83 363.74-24.85 363.06-24.85L363.06-24.85Q362.52-24.85 361.18-24.76 359.84-24.66 358.35-24.44 356.86-24.22 355.59-23.9 354.32-23.58 354.03-23.14L354.03-23.14Q353.73-22.8 353.56-21.85 353.39-20.9 353.27-19.8 353.15-18.7 353.1-17.7 353.05-16.7 353.05-16.26L353.05-16.26Q353.05-15.87 353.08-15.09 353.1-14.31 353.2-13.48 353.3-12.65 353.42-11.91 353.54-11.18 353.78-10.84L353.78-10.84Q353.93-10.6 354.66-10.4 355.39-10.21 356.44-10.03 357.49-9.86 358.67-9.77 359.84-9.67 360.94-9.59 362.04-9.52 362.89-9.5 363.74-9.47 364.09-9.47L364.09-9.47Q364.67-9.47 366.11-9.57 367.55-9.67 369.14-9.89 370.73-10.11 372.07-10.42 373.41-10.74 373.8-11.18L373.8-11.18Q374.1-11.52 374.29-12.62 374.49-13.72 374.58-15.01 374.68-16.31 374.71-17.5 374.73-18.7 374.73-19.24ZM421.75-0.15L421.75-0.15 414.33 0.98Q413.55-1.51 412.77-3.98 411.98-6.45 411.25-8.94L411.25-8.94 399.24-8.5 397.73-2 390.21-2Q390.89-10.3 391.62-18.51 392.36-26.71 393.04-34.96L393.04-34.96Q396.55-35.55 400.05-35.94 403.54-36.33 407.1-36.33L407.1-36.33Q411.45-36.33 415.79-36.18L415.79-36.18Q416.57-31.1 417.33-26.05 418.09-21 418.92-15.92L418.92-15.92Q419.5-11.91 420.21-8.01 420.92-4.1 421.75-0.15ZM400.17-15.33L409.54-15.58Q409.49-16.02 409.3-17.21 409.1-18.41 408.86-19.75 408.62-21.09 408.3-22.19 407.98-23.29 407.69-23.49L407.69-23.49Q407.59-23.54 407.22-23.58 406.86-23.63 406.44-23.68 406.03-23.73 405.64-23.73 405.25-23.73 405.1-23.73L405.1-23.73Q404.86-23.73 404.44-23.73 404.03-23.73 403.56-23.71 403.1-23.68 402.68-23.58 402.27-23.49 402.12-23.34L402.12-23.34Q402.02-23.29 401.88-22.71 401.73-22.12 401.51-21.26 401.29-20.41 401.07-19.43 400.85-18.46 400.66-17.58 400.46-16.7 400.34-16.06 400.22-15.43 400.17-15.33L400.17-15.33ZM461.98-24.56L461.98-24.56Q461.98-20.56 459.54-18.26 457.1-15.97 453.1-15.77L453.1-15.77Q457.93-7.71 461.54 0.73L461.54 0.73 447.28 1.07Q446.89-2.88 446.11-6.2 445.33-9.52 443.92-13.18L443.92-13.18Q442.3-13.09 440.72-12.94 439.13-12.79 437.57-12.7L437.57-12.7 437.81-1.61Q435.03-1.46 432.25-1.46L432.25-1.46Q430.83-1.46 429.49-1.51 428.14-1.56 426.78-1.71L426.78-1.71Q427.12-6.2 427.41-10.67 427.7-15.14 427.75-19.58L427.75-19.58Q427.9-27.49 428.19-35.4L428.19-35.4Q432.78-35.64 437.35-35.94 441.91-36.23 446.5-36.23L446.5-36.23Q447.68-36.23 449.04-36.18 450.41-36.13 451.8-35.91 453.19-35.69 454.49-35.3 455.78-34.91 456.81-34.28L456.81-34.28Q459.3-32.71 460.64-30.1 461.98-27.49 461.98-24.56ZM450.65-25.34L450.65-25.34Q450.65-25.73 450.63-26.42 450.6-27.1 450.51-27.81 450.41-28.52 450.21-29.13 450.02-29.74 449.68-30.03L449.68-30.03Q449.43-30.22 448.85-30.32 448.26-30.42 447.6-30.49 446.94-30.57 446.33-30.59 445.72-30.62 445.48-30.62L445.48-30.62Q443.52-30.62 441.64-30.42 439.76-30.22 437.91-29.93L437.91-29.93 439.23-20.46Q440.3-20.21 441.47-20.12 442.65-20.02 443.77-20.02L443.77-20.02Q444.26-20.02 445.21-20.07 446.16-20.12 447.16-20.26 448.16-20.41 449.02-20.68 449.87-20.95 450.21-21.39L450.21-21.39Q450.36-21.58 450.46-22.14 450.56-22.71 450.58-23.32 450.6-23.93 450.63-24.51 450.65-25.1 450.65-25.34ZM501.73-17.53L501.73-17.53Q501.73-16.11 501.73-14.55 501.73-12.99 501.38-11.57L501.38-11.57Q501.14-10.5 500.85-9.69 500.55-8.89 500.11-8.23 499.67-7.57 499.04-7.01 498.41-6.45 497.48-5.91L497.48-5.91Q497.18-5.71 495.91-5.4 494.65-5.08 492.77-4.64 490.89-4.2 488.57-3.71 486.25-3.22 483.83-2.76 481.41-2.29 479.04-1.83 476.68-1.37 474.75-1 472.82-0.63 471.48-0.37 470.13-0.1 469.69-0.05L469.69-0.05Q468.86-8.98 468.13-17.77 467.4-26.56 467.01-35.55L467.01-35.55Q471.11-35.4 475.16-35.23 479.22-35.06 483.37-34.77L483.37-34.77Q484.44-34.67 486.52-34.52 488.59-34.38 490.84-34.11 493.08-33.84 495.06-33.45 497.04-33.06 497.92-32.47L497.92-32.47Q499.04-31.64 499.92-30.22 500.8-28.81 501.19-27.44L501.19-27.44Q501.38-26.81 501.48-25.46 501.58-24.12 501.63-22.61 501.68-21.09 501.7-19.68 501.73-18.26 501.73-17.53ZM489.57-16.89L489.57-16.89Q489.57-17.43 489.54-18.04 489.52-18.65 489.47-19.19L489.47-19.19Q489.37-19.97 489.2-20.83 489.03-21.68 488.74-22.49 488.44-23.29 488-24 487.57-24.71 486.93-25.24L486.93-25.24Q486.59-25.54 485.27-25.71 483.95-25.88 482.39-25.95 480.83-26.03 479.46-26.05 478.09-26.07 477.7-26.07L477.7-26.07 475.7-26.07Q476.09-22.27 476.41-18.58 476.73-14.89 476.97-11.08L476.97-11.08Q477.9-11.13 479.63-11.35 481.36-11.57 483.17-11.94 484.98-12.3 486.54-12.87 488.1-13.43 488.79-14.21L488.79-14.21Q489.32-14.79 489.45-15.45 489.57-16.11 489.57-16.89Z" opacity="1" transform="matrix(1,0,0,1,0,0)" fill="#ea3c12" class="wordmark-text-0" data-fill-palette-color="primary" id="text-0"></path></svg></g></svg></g><g transform="matrix(1,0,0,1,0,40.785415872377065)"><svg viewBox="0 0 223.0050337361861 19.349324837481696" height="19.349324837481696" width="223.0050337361861"><g transform="matrix(1,0,0,1,0,0)"><svg width="223.0050337361861" viewBox="1 -36 548.5499877929688 47.599998474121094" height="19.349324837481696" data-palette-color="#ea9937"><path d="M13.75 0L8.3 0 1-24.8 6.3-24.8 11.1-6.1 16.5-24.8 22.4-24.8 27.8-6.1 32.6-24.8 37.9-24.8 30.6 0 25.15 0 19.45-19.5 13.75 0ZM52.9 0.6L52.9 0.6Q49.25 0.6 46.42-1.03 43.6-2.65 42-5.55 40.4-8.45 40.4-12.3L40.4-12.3Q40.4-16.2 41.97-19.15 43.55-22.1 46.37-23.75 49.2-25.4 52.95-25.4L52.95-25.4Q56.6-25.4 59.3-23.78 62-22.15 63.5-19.45 65-16.75 65-13.5L65-13.5Q65-13 64.97-12.43 64.95-11.85 64.9-11.15L64.9-11.15 45.6-11.15Q45.85-7.55 47.97-5.68 50.1-3.8 52.9-3.8L52.9-3.8Q55.15-3.8 56.67-4.83 58.2-5.85 58.95-7.6L58.95-7.6 64.25-7.6Q63.25-4.1 60.27-1.75 57.3 0.6 52.9 0.6ZM52.9-21.05L52.9-21.05Q50.25-21.05 48.2-19.48 46.15-17.9 45.7-14.75L45.7-14.75 59.7-14.75Q59.55-17.65 57.65-19.35 55.75-21.05 52.9-21.05ZM84.45 0.6L84.45 0.6Q81.55 0.6 79.32-0.55 77.1-1.7 75.8-3.8L75.8-3.8 75.25 0 70.5 0 70.5-36 75.8-36 75.8-20.95Q77-22.7 79.1-24.05 81.2-25.4 84.5-25.4L84.5-25.4Q88.1-25.4 90.85-23.7 93.6-22 95.17-19.05 96.75-16.1 96.75-12.35L96.75-12.35Q96.75-8.6 95.17-5.68 93.6-2.75 90.85-1.07 88.1 0.6 84.45 0.6ZM83.55-4L83.55-4Q86.95-4 89.15-6.33 91.35-8.65 91.35-12.4L91.35-12.4Q91.35-14.85 90.35-16.75 89.35-18.65 87.6-19.73 85.85-20.8 83.55-20.8L83.55-20.8Q80.15-20.8 77.97-18.45 75.8-16.1 75.8-12.4L75.8-12.4Q75.8-8.65 77.97-6.33 80.15-4 83.55-4ZM121.64 0L116.34 0 116.34-20.35 112.79-20.35 112.79-24.8 116.34-24.8 116.34-28.4Q116.34-32.45 118.37-34.23 120.39-36 124.09-36L124.09-36 126.69-36 126.69-31.5 124.89-31.5Q123.14-31.5 122.39-30.78 121.64-30.05 121.64-28.35L121.64-28.35 121.64-24.8 127.34-24.8 127.34-20.35 121.64-20.35 121.64 0ZM142.99 0.6L142.99 0.6Q139.44 0.6 136.61-1.03 133.79-2.65 132.14-5.58 130.49-8.5 130.49-12.4L130.49-12.4Q130.49-16.3 132.16-19.23 133.84-22.15 136.69-23.78 139.54-25.4 143.04-25.4L143.04-25.4Q146.59-25.4 149.41-23.78 152.24-22.15 153.91-19.23 155.59-16.3 155.59-12.4L155.59-12.4Q155.59-8.5 153.91-5.58 152.24-2.65 149.39-1.03 146.54 0.6 142.99 0.6ZM142.99-3.95L142.99-3.95Q144.89-3.95 146.51-4.9 148.14-5.85 149.14-7.73 150.14-9.6 150.14-12.4L150.14-12.4Q150.14-15.2 149.16-17.07 148.19-18.95 146.56-19.9 144.94-20.85 143.04-20.85L143.04-20.85Q141.14-20.85 139.51-19.9 137.89-18.95 136.89-17.07 135.89-15.2 135.89-12.4L135.89-12.4Q135.89-9.6 136.89-7.73 137.89-5.85 139.49-4.9 141.09-3.95 142.99-3.95ZM166.64 0L161.34 0 161.34-24.8 166.09-24.8 166.54-20.1Q167.84-22.55 170.16-23.98 172.49-25.4 175.79-25.4L175.79-25.4 175.79-19.85 174.34-19.85Q172.14-19.85 170.41-19.13 168.69-18.4 167.66-16.68 166.64-14.95 166.64-11.9L166.64-11.9 166.64 0ZM202.83 0.6L202.83 0.6Q198.13 0.6 195.08-1.7 192.03-4 191.58-7.8L191.58-7.8 196.93-7.8Q197.33-6.1 198.83-4.88 200.33-3.65 202.78-3.65L202.78-3.65Q205.18-3.65 206.28-4.65 207.38-5.65 207.38-6.95L207.38-6.95Q207.38-8.85 205.86-9.53 204.33-10.2 201.63-10.75L201.63-10.75Q199.53-11.2 197.46-11.95 195.38-12.7 194.01-14.08 192.63-15.45 192.63-17.8L192.63-17.8Q192.63-21.05 195.13-23.23 197.63-25.4 202.13-25.4L202.13-25.4Q206.28-25.4 208.86-23.4 211.43-21.4 211.88-17.75L211.88-17.75 206.78-17.75Q206.53-19.35 205.31-20.25 204.08-21.15 202.03-21.15L202.03-21.15Q200.03-21.15 198.93-20.33 197.83-19.5 197.83-18.2L197.83-18.2Q197.83-16.9 199.36-16.15 200.88-15.4 203.38-14.8L203.38-14.8Q205.88-14.25 208.01-13.53 210.13-12.8 211.43-11.4 212.73-10 212.73-7.3L212.73-7.3Q212.78-3.9 210.11-1.65 207.43 0.6 202.83 0.6ZM223.83 0L218.53 0 218.53-36 223.83-36 223.83-20.8Q225.08-22.95 227.3-24.18 229.53-25.4 232.23-25.4L232.23-25.4Q236.68-25.4 239.23-22.6 241.78-19.8 241.78-14.25L241.78-14.25 241.78 0 236.53 0 236.53-13.7Q236.53-20.9 230.78-20.9L230.78-20.9Q227.78-20.9 225.8-18.8 223.83-16.7 223.83-12.8L223.83-12.8 223.83 0ZM256.43 0.6L256.43 0.6Q253.28 0.6 251.23-0.45 249.18-1.5 248.18-3.23 247.18-4.95 247.18-7L247.18-7Q247.18-10.6 249.98-12.7 252.78-14.8 257.98-14.8L257.98-14.8 264.48-14.8 264.48-15.25Q264.48-18.15 262.9-19.6 261.32-21.05 258.82-21.05L258.82-21.05Q256.63-21.05 255-19.98 253.38-18.9 253.03-16.8L253.03-16.8 247.73-16.8Q247.98-19.5 249.55-21.43 251.13-23.35 253.55-24.38 255.98-25.4 258.88-25.4L258.88-25.4Q264.07-25.4 266.93-22.68 269.78-19.95 269.78-15.25L269.78-15.25 269.78 0 265.18 0 264.73-4.25Q263.68-2.2 261.68-0.8 259.68 0.6 256.43 0.6ZM257.48-3.7L257.48-3.7Q259.63-3.7 261.1-4.73 262.57-5.75 263.4-7.45 264.23-9.15 264.43-11.2L264.43-11.2 258.53-11.2Q255.38-11.2 254.05-10.1 252.73-9 252.73-7.35L252.73-7.35Q252.73-5.65 254-4.67 255.28-3.7 257.48-3.7ZM281.27 0L275.97 0 275.97-24.8 280.72-24.8 281.17-20.1Q282.47-22.55 284.8-23.98 287.12-25.4 290.42-25.4L290.42-25.4 290.42-19.85 288.97-19.85Q286.77-19.85 285.05-19.13 283.32-18.4 282.3-16.68 281.27-14.95 281.27-11.9L281.27-11.9 281.27 0ZM297.97-29.5L297.97-29.5Q296.47-29.5 295.5-30.43 294.52-31.35 294.52-32.75L294.52-32.75Q294.52-34.15 295.5-35.08 296.47-36 297.97-36L297.97-36Q299.47-36 300.44-35.08 301.42-34.15 301.42-32.75L301.42-32.75Q301.42-31.35 300.44-30.43 299.47-29.5 297.97-29.5ZM300.62 0L295.32 0 295.32-24.8 300.62-24.8 300.62 0ZM312.92 0L307.62 0 307.62-24.8 312.32-24.8 312.72-20.45Q313.87-22.75 316.09-24.08 318.32-25.4 321.22-25.4L321.22-25.4Q325.72-25.4 328.29-22.6 330.87-19.8 330.87-14.25L330.87-14.25 330.87 0 325.62 0 325.62-13.7Q325.62-20.9 319.72-20.9L319.72-20.9Q316.77-20.9 314.84-18.8 312.92-16.7 312.92-12.8L312.92-12.8 312.92 0ZM347.26-7.6L347.26-7.6Q345.31-7.6 343.66-8.05L343.66-8.05 341.51-5.95Q342.06-5.6 342.87-5.35 343.66-5.1 345.12-4.9 346.56-4.7 349.06-4.5L349.06-4.5Q354.01-4.05 356.21-2.13 358.41-0.2 358.41 3L358.41 3Q358.41 5.2 357.24 7.18 356.06 9.15 353.59 10.38 351.12 11.6 347.26 11.6L347.26 11.6Q342.06 11.6 338.84 9.63 335.62 7.65 335.62 3.65L335.62 3.65Q335.62 2.1 336.44 0.58 337.26-0.95 339.06-2.3L339.06-2.3Q338.01-2.75 337.24-3.28 336.46-3.8 335.87-4.35L335.87-4.35 335.87-5.55 340.16-9.95Q337.26-12.45 337.26-16.5L337.26-16.5Q337.26-18.95 338.44-20.98 339.62-23 341.87-24.2 344.12-25.4 347.26-25.4L347.26-25.4Q349.37-25.4 351.16-24.8L351.16-24.8 360.41-24.8 360.41-21.3 356.01-21.05Q357.21-19 357.21-16.5L357.21-16.5Q357.21-14 356.04-12 354.87-10 352.64-8.8 350.41-7.6 347.26-7.6ZM347.26-11.75L347.26-11.75Q349.56-11.75 350.99-12.98 352.41-14.2 352.41-16.45L352.41-16.45Q352.41-18.75 350.99-19.95 349.56-21.15 347.26-21.15L347.26-21.15Q344.91-21.15 343.49-19.95 342.06-18.75 342.06-16.45L342.06-16.45Q342.06-14.2 343.49-12.98 344.91-11.75 347.26-11.75ZM340.62 3.15L340.62 3.15Q340.62 5.3 342.51 6.38 344.41 7.45 347.26 7.45L347.26 7.45Q350.01 7.45 351.71 6.28 353.41 5.1 353.41 3.15L353.41 3.15Q353.41 1.7 352.26 0.68 351.12-0.35 347.91-0.6L347.91-0.6Q345.51-0.75 343.66-1.05L343.66-1.05Q341.91-0.1 341.26 1 340.62 2.1 340.62 3.15ZM383.06 11L377.76 11 377.76-24.8 382.51-24.8 383.06-20.95Q384.26-22.7 386.36-24.05 388.46-25.4 391.76-25.4L391.76-25.4Q395.36-25.4 398.11-23.7 400.86-22 402.44-19.05 404.01-16.1 404.01-12.35L404.01-12.35Q404.01-8.6 402.44-5.68 400.86-2.75 398.11-1.07 395.36 0.6 391.71 0.6L391.71 0.6Q388.81 0.6 386.59-0.55 384.36-1.7 383.06-3.8L383.06-3.8 383.06 11ZM390.81-4L390.81-4Q394.21-4 396.41-6.33 398.61-8.65 398.61-12.4L398.61-12.4Q398.61-14.85 397.61-16.75 396.61-18.65 394.86-19.73 393.11-20.8 390.81-20.8L390.81-20.8Q387.41-20.8 385.24-18.45 383.06-16.1 383.06-12.4L383.06-12.4Q383.06-8.65 385.24-6.33 387.41-4 390.81-4ZM415.06 0L409.76 0 409.76-24.8 414.51-24.8 414.96-20.1Q416.26-22.55 418.58-23.98 420.91-25.4 424.21-25.4L424.21-25.4 424.21-19.85 422.76-19.85Q420.56-19.85 418.83-19.13 417.11-18.4 416.08-16.68 415.06-14.95 415.06-11.9L415.06-11.9 415.06 0ZM439.66 0.6L439.66 0.6Q436.11 0.6 433.28-1.03 430.46-2.65 428.81-5.58 427.16-8.5 427.16-12.4L427.16-12.4Q427.16-16.3 428.83-19.23 430.51-22.15 433.36-23.78 436.21-25.4 439.71-25.4L439.71-25.4Q443.26-25.4 446.08-23.78 448.91-22.15 450.58-19.23 452.26-16.3 452.26-12.4L452.26-12.4Q452.26-8.5 450.58-5.58 448.91-2.65 446.06-1.03 443.21 0.6 439.66 0.6ZM439.66-3.95L439.66-3.95Q441.56-3.95 443.18-4.9 444.81-5.85 445.81-7.73 446.81-9.6 446.81-12.4L446.81-12.4Q446.81-15.2 445.83-17.07 444.86-18.95 443.23-19.9 441.61-20.85 439.71-20.85L439.71-20.85Q437.81-20.85 436.18-19.9 434.56-18.95 433.56-17.07 432.56-15.2 432.56-12.4L432.56-12.4Q432.56-9.6 433.56-7.73 434.56-5.85 436.16-4.9 437.76-3.95 439.66-3.95ZM463.3 0L458 0 458-24.8 462.7-24.8 463.15-21.3Q464.35-23.2 466.33-24.3 468.3-25.4 470.9-25.4L470.9-25.4Q476.8-25.4 479.1-20.75L479.1-20.75Q480.45-22.9 482.73-24.15 485-25.4 487.65-25.4L487.65-25.4Q492.3-25.4 494.95-22.6 497.6-19.8 497.6-14.25L497.6-14.25 497.6 0 492.3 0 492.3-13.7Q492.3-20.9 486.8-20.9L486.8-20.9Q484-20.9 482.23-18.8 480.45-16.7 480.45-12.8L480.45-12.8 480.45 0 475.15 0 475.15-13.7Q475.15-20.9 469.6-20.9L469.6-20.9Q466.85-20.9 465.08-18.8 463.3-16.7 463.3-12.8L463.3-12.8 463.3 0ZM509.1 11L503.8 11 503.8-24.8 508.55-24.8 509.1-20.95Q510.3-22.7 512.4-24.05 514.5-25.4 517.8-25.4L517.8-25.4Q521.4-25.4 524.15-23.7 526.9-22 528.48-19.05 530.05-16.1 530.05-12.35L530.05-12.35Q530.05-8.6 528.48-5.68 526.9-2.75 524.15-1.07 521.4 0.6 517.75 0.6L517.75 0.6Q514.85 0.6 512.63-0.55 510.4-1.7 509.1-3.8L509.1-3.8 509.1 11ZM516.85-4L516.85-4Q520.25-4 522.45-6.33 524.65-8.65 524.65-12.4L524.65-12.4Q524.65-14.85 523.65-16.75 522.65-18.65 520.9-19.73 519.15-20.8 516.85-20.8L516.85-20.8Q513.45-20.8 511.28-18.45 509.1-16.1 509.1-12.4L509.1-12.4Q509.1-8.65 511.28-6.33 513.45-4 516.85-4ZM549.3 0L545.2 0Q541.55 0 539.4-1.78 537.25-3.55 537.25-8.1L537.25-8.1 537.25-20.35 533-20.35 533-24.8 537.25-24.8 537.9-31.1 542.55-31.1 542.55-24.8 549.55-24.8 549.55-20.35 542.55-20.35 542.55-8.1Q542.55-6.05 543.42-5.28 544.3-4.5 546.45-4.5L546.45-4.5 549.3-4.5 549.3 0Z" opacity="1" transform="matrix(1,0,0,1,0,0)" fill="#ea9937" class="slogan-text-1" data-fill-palette-color="secondary" id="text-1"></path></svg></g></svg></g></svg></g></svg></g><g><svg viewBox="0 0 163.5715310497482 157.43275117841023" height="157.43275117841023" width="163.5715310497482"><g><svg xmlns="http://www.w3.org/2000/svg" viewBox="6.540000915527344 6.88893461227417 18.889999389648438 18.18106460571289" x="0" y="0" height="157.43275117841023" width="163.5715310497482" class="icon-icon-0" data-fill-palette-color="accent" id="icon-0"><g fill="#ea9937" data-fill-palette-color="accent"><path d="M21.26 12.21L17.11 8.83a1.31 1.31 0 0 0 0.18-0.61 1.29 1.29 0 1 0-2.42 0.58l-4.33 3.41h-4V25.07H25.43V12.21ZM16 7.93a0.29 0.29 0 1 1-0.29 0.29A0.29 0.29 0 0 1 16 7.93Zm-0.33 1.51a1.21 1.21 0 0 0 0.33 0.07 1.5 1.5 0 0 0 0.29-0.06l3.39 2.76H12.15Zm8.76 14.63H7.57V13.21H24.43ZM23.56 15H8.44V14H23.56Zm-15 4h3v-3h-3Zm1-2h1v1h-1Zm3 2h3v-3h-3Zm1-2h1v1h-1Zm-5 6h3v-3h-3Zm1-2h1v1h-1Zm3 2h3v-3h-3Zm1-2h1v1h-1Zm3-2h3v-3h-3Zm1-2h1v1h-1Zm3 2h3v-3h-3Zm1-2h1v1h-1Zm-5 6h3v-3h-3Zm1-2h1v1h-1Zm3 2h3v-3h-3Zm1-2h1v1h-1Z" fill="#ea9937" data-fill-palette-color="accent"></path></g></svg></g></svg></g></svg></g><defs></defs></svg><rect width="395.52" height="109.53759097555775" fill="none" stroke="none" visibility="hidden"></rect></g></svg></g></svg>